<svg width="178" height="39" viewBox="0 0 178 39" fill="none" xmlns="http://www.w3.org/2000/svg">
<path d="M67.72 14.115C67.23 11.9683 66.32 10.44 64.99 9.53C63.66 8.62 61.9217 8.165 59.775 8.165C58.2583 8.165 56.9517 8.46833 55.855 9.075C54.7583 9.68167 53.8483 10.4983 53.125 11.525C52.425 12.5517 51.9 13.7417 51.55 15.095C51.2233 16.425 51.06 17.8367 51.06 19.33C51.06 20.73 51.2 22.1067 51.48 23.46C51.7833 24.8133 52.2733 26.0267 52.95 27.1C53.6267 28.15 54.5367 29.0017 55.68 29.655C56.8233 30.3083 58.2583 30.635 59.985 30.635C61.0583 30.635 62.0383 30.46 62.925 30.11C63.8117 29.76 64.5817 29.2817 65.235 28.675C65.9117 28.045 66.4717 27.31 66.915 26.47C67.3817 25.63 67.7317 24.7083 67.965 23.705H70.45C70.17 24.9183 69.7617 26.0733 69.225 27.17C68.6883 28.2433 67.9767 29.1883 67.09 30.005C66.2267 30.8217 65.165 31.475 63.905 31.965C62.6683 32.4317 61.21 32.665 59.53 32.665C57.5933 32.665 55.9367 32.315 54.56 31.615C53.1833 30.8917 52.0517 29.9233 51.165 28.71C50.3017 27.4967 49.6717 26.0967 49.275 24.51C48.8783 22.9 48.68 21.1967 48.68 19.4C48.68 16.9967 48.9717 14.955 49.555 13.275C50.1617 11.595 50.99 10.23 52.04 9.18C53.09 8.10667 54.3267 7.33667 55.75 6.87C57.1733 6.38 58.725 6.135 60.405 6.135C61.6883 6.135 62.8783 6.31 63.975 6.66C65.095 6.98667 66.075 7.48833 66.915 8.165C67.7783 8.84167 68.4783 9.68167 69.015 10.685C69.575 11.665 69.96 12.8083 70.17 14.115H67.72ZM81.9888 32.49C80.8221 32.4667 79.7255 32.2567 78.6988 31.86C77.6955 31.4633 76.8088 30.8683 76.0388 30.075C75.2921 29.2817 74.6971 28.29 74.2538 27.1C73.8105 25.91 73.5888 24.5217 73.5888 22.935C73.5888 21.605 73.7638 20.3683 74.1138 19.225C74.4638 18.0583 74.9888 17.0433 75.6888 16.18C76.3888 15.3167 77.2638 14.64 78.3138 14.15C79.3638 13.6367 80.5888 13.38 81.9888 13.38C83.4121 13.38 84.6488 13.6367 85.6988 14.15C86.7488 14.64 87.6238 15.3167 88.3238 16.18C89.0238 17.02 89.5371 18.0233 89.8638 19.19C90.2138 20.3567 90.3888 21.605 90.3888 22.935C90.3888 24.3817 90.1905 25.6883 89.7938 26.855C89.3971 28.0217 88.8255 29.025 88.0788 29.865C87.3555 30.705 86.4688 31.3583 85.4188 31.825C84.3921 32.2683 83.2488 32.49 81.9888 32.49ZM88.1488 22.935C88.1488 21.8617 88.0321 20.8583 87.7988 19.925C87.5655 18.9917 87.2038 18.1867 86.7138 17.51C86.2238 16.81 85.5938 16.2617 84.8238 15.865C84.0538 15.4683 83.1088 15.27 81.9888 15.27C80.8921 15.27 79.9471 15.4917 79.1538 15.935C78.3838 16.355 77.7538 16.9267 77.2638 17.65C76.7738 18.35 76.4121 19.1667 76.1788 20.1C75.9455 21.01 75.8288 21.955 75.8288 22.935C75.8288 24.055 75.9571 25.0933 76.2138 26.05C76.4938 26.9833 76.8905 27.7883 77.4038 28.465C77.9171 29.1417 78.5588 29.6667 79.3288 30.04C80.0988 30.4133 80.9855 30.6 81.9888 30.6C83.0855 30.6 84.0188 30.39 84.7888 29.97C85.5821 29.5267 86.2238 28.9433 86.7138 28.22C87.2038 27.4967 87.5655 26.68 87.7988 25.77C88.0321 24.86 88.1488 23.915 88.1488 22.935ZM96.327 32H94.227V13.87H96.327V16.39C97.167 15.5033 98.0304 14.78 98.917 14.22C99.827 13.66 100.912 13.38 102.172 13.38C103.292 13.38 104.33 13.5783 105.287 13.975C106.244 14.3483 107.049 15.0133 107.702 15.97C108.145 16.6233 108.402 17.3 108.472 18C108.565 18.6767 108.612 19.3883 108.612 20.135V32H106.512V20.17C106.512 18.5367 106.15 17.3117 105.427 16.495C104.704 15.6783 103.502 15.27 101.822 15.27C101.169 15.27 100.574 15.375 100.037 15.585C99.5004 15.7717 99.0104 16.0283 98.567 16.355C98.147 16.6817 97.7854 17.055 97.482 17.475C97.1787 17.895 96.9454 18.3383 96.782 18.805C96.572 19.3883 96.4437 19.9483 96.397 20.485C96.3504 21.0217 96.327 21.605 96.327 22.235V32ZM114.9 26.33C115.227 27.8933 115.81 29.0017 116.65 29.655C117.514 30.285 118.739 30.6 120.325 30.6C121.095 30.6 121.76 30.5067 122.32 30.32C122.88 30.1333 123.335 29.8883 123.685 29.585C124.059 29.2583 124.339 28.8967 124.525 28.5C124.712 28.1033 124.805 27.6833 124.805 27.24C124.805 26.3533 124.514 25.7 123.93 25.28C123.37 24.8367 122.659 24.4983 121.795 24.265C120.932 24.0083 119.999 23.7983 118.995 23.635C117.992 23.4483 117.059 23.18 116.195 22.83C115.332 22.48 114.609 21.9783 114.025 21.325C113.465 20.6717 113.185 19.75 113.185 18.56C113.185 17.0433 113.734 15.8067 114.83 14.85C115.95 13.87 117.525 13.38 119.555 13.38C121.515 13.38 123.102 13.8233 124.315 14.71C125.552 15.5733 126.299 17.0317 126.555 19.085H124.42C124.234 17.685 123.697 16.705 122.81 16.145C121.947 15.5617 120.85 15.27 119.52 15.27C118.19 15.27 117.175 15.5617 116.475 16.145C115.775 16.705 115.425 17.4517 115.425 18.385C115.425 19.2017 115.705 19.8317 116.265 20.275C116.849 20.695 117.572 21.045 118.435 21.325C119.299 21.5817 120.232 21.815 121.235 22.025C122.239 22.235 123.172 22.5383 124.035 22.935C124.899 23.3083 125.61 23.8217 126.17 24.475C126.754 25.1283 127.045 26.0383 127.045 27.205C127.045 28.0683 126.859 28.8383 126.485 29.515C126.112 30.1683 125.599 30.7167 124.945 31.16C124.292 31.6033 123.51 31.93 122.6 32.14C121.714 32.3733 120.734 32.49 119.66 32.49C118.587 32.49 117.63 32.3267 116.79 32C115.974 31.6967 115.274 31.265 114.69 30.705C114.107 30.145 113.652 29.4917 113.325 28.745C112.999 27.9983 112.812 27.1933 112.765 26.33H114.9ZM144.3 21.675C144.3 20.7883 144.172 19.96 143.915 19.19C143.682 18.3967 143.32 17.72 142.83 17.16C142.364 16.5767 141.769 16.1217 141.045 15.795C140.322 15.445 139.494 15.27 138.56 15.27C137.627 15.27 136.799 15.445 136.075 15.795C135.375 16.145 134.769 16.6117 134.255 17.195C133.765 17.7783 133.369 18.455 133.065 19.225C132.762 19.995 132.564 20.8117 132.47 21.675H144.3ZM132.47 23.425C132.47 24.405 132.599 25.3383 132.855 26.225C133.112 27.0883 133.485 27.8467 133.975 28.5C134.489 29.13 135.13 29.6433 135.9 30.04C136.67 30.4133 137.557 30.6 138.56 30.6C139.937 30.6 141.115 30.2383 142.095 29.515C143.075 28.7917 143.729 27.765 144.055 26.435H146.4C146.144 27.2983 145.805 28.1033 145.385 28.85C144.965 29.5733 144.44 30.215 143.81 30.775C143.18 31.3117 142.434 31.7317 141.57 32.035C140.707 32.3383 139.704 32.49 138.56 32.49C137.114 32.49 135.865 32.245 134.815 31.755C133.765 31.265 132.902 30.6 132.225 29.76C131.549 28.8967 131.047 27.8933 130.72 26.75C130.394 25.5833 130.23 24.335 130.23 23.005C130.23 21.675 130.417 20.4267 130.79 19.26C131.187 18.0933 131.735 17.0783 132.435 16.215C133.159 15.3283 134.034 14.64 135.06 14.15C136.087 13.6367 137.254 13.38 138.56 13.38C141.057 13.38 143.017 14.2433 144.44 15.97C145.864 17.6733 146.564 20.1583 146.54 23.425H132.47ZM152.724 32H150.624V13.87H152.724V16.39C153.564 15.5033 154.427 14.78 155.314 14.22C156.224 13.66 157.309 13.38 158.569 13.38C159.689 13.38 160.727 13.5783 161.684 13.975C162.64 14.3483 163.445 15.0133 164.099 15.97C164.542 16.6233 164.799 17.3 164.869 18C164.962 18.6767 165.009 19.3883 165.009 20.135V32H162.909V20.17C162.909 18.5367 162.547 17.3117 161.824 16.495C161.1 15.6783 159.899 15.27 158.219 15.27C157.565 15.27 156.97 15.375 156.434 15.585C155.897 15.7717 155.407 16.0283 154.964 16.355C154.544 16.6817 154.182 17.055 153.879 17.475C153.575 17.895 153.342 18.3383 153.179 18.805C152.969 19.3883 152.84 19.9483 152.794 20.485C152.747 21.0217 152.724 21.605 152.724 22.235V32ZM176.442 32.07C176.185 32.1167 175.847 32.1983 175.427 32.315C175.007 32.4317 174.54 32.49 174.027 32.49C172.977 32.49 172.172 32.2333 171.612 31.72C171.075 31.1833 170.807 30.2383 170.807 28.885V15.62H168.252V13.87H170.807V8.83H172.907V13.87H176.302V15.62H172.907V28.045C172.907 28.4883 172.918 28.8733 172.942 29.2C172.965 29.5267 173.035 29.795 173.152 30.005C173.268 30.215 173.443 30.3667 173.677 30.46C173.933 30.5533 174.283 30.6 174.727 30.6C175.007 30.6 175.287 30.5767 175.567 30.53C175.87 30.4833 176.162 30.425 176.442 30.355V32.07Z" fill="#2E3646"/>
<path d="M26.8533 7.1149C27.267 6.65263 27.7607 6.2615 28.2119 5.83353L30.9731 3.31525C31.4616 2.8695 32.2273 2.90126 32.6798 3.38002C33.1193 3.84989 33.1039 4.5763 32.6488 5.02459L32.5728 5.09951L30.0166 7.6216C29.6002 8.04957 29.1452 8.4369 28.7611 8.89916L27.5713 10.2529C26.7927 11.1673 25.9535 12.0207 25.2265 12.9807L22.99 15.8114C22.2591 16.7639 21.5707 17.7506 20.8592 18.7208C20.1386 19.6834 19.4812 20.6918 18.8057 21.6849C17.4561 23.666 16.1696 25.7246 14.9735 27.75L14.8626 27.9113C14.3303 28.6897 13.2591 28.8942 12.4702 28.3697C12.2356 28.2161 12.0499 28.0065 11.921 27.7767L6.27116 17.6146C5.95147 17.0393 6.16546 16.3129 6.75067 15.9967C7.29982 15.7021 7.98559 15.8735 8.33106 16.37L13.4074 23.7063C14.2839 22.4008 15.1747 21.1156 16.1092 19.8522C16.8427 18.8617 17.5542 17.8572 18.3316 16.8984C19.0998 15.9319 19.8449 14.949 20.6325 13.9991L23.043 11.1824C23.8242 10.2261 24.733 9.37017 25.5709 8.45835L26.8533 7.1149ZM1.78016 35C0.795323 35 0 34.2152 0 33.2462V7.68106C0 6.71209 0.796643 5.92729 1.78016 5.92729H25.5465L24.2548 7.28106C23.9674 7.59346 23.6722 7.89823 23.377 8.20302C22.9825 8.61067 22.5958 9.02212 22.2259 9.43614L3.56161 9.43487V31.4912H25.9499V14.921L26.6524 14.0308C27.0907 13.4555 27.5728 12.917 28.0536 12.3824C28.3488 12.0497 28.6466 11.7207 28.916 11.402L29.5115 10.7239V33.2461C29.5115 34.2163 28.7149 34.9998 27.7313 34.9998L1.78016 35Z" fill="#2E3646"/>
</svg>
